<svg width="111" height="31" viewBox="0 0 111 31" fill="none" xmlns="http://www.w3.org/2000/svg">
<path d="M39.6742 23.0491H50.4223V27.8253H34.6514V2.48828H50.243V7.26451H39.6816V12.6573H49.3311V17.3666H39.6816V23.0491H39.6742Z" fill="#231F20"/>
<path d="M58.9805 23.0491H68.7047V27.8253H53.9502V2.48828H58.9805V23.0491Z" fill="#231F20"/>
<path d="M88.4073 2.48828L79.6622 17.946V27.8253H74.6693V17.946L65.9617 2.48828H71.6422L77.1658 13.0361L82.7118 2.48828H88.3923H88.4073Z" fill="#231F20"/>
<path d="M110.262 27.8254H104.544L99.589 19.558L94.6334 27.8254H88.9529L96.7487 14.8189L89.3565 2.48096H95.037L99.5964 10.065L104.141 2.48096H109.821L102.437 14.8041L110.262 27.8254Z" fill="#231F20"/>
<path d="M28.313 2.98584H2.85522V28.2857H28.313V2.98584Z" fill="#3D8F42"/>
<path d="M20.42 15.6953L24.9196 11.9219L22.9987 9.64893L16.2119 15.3388L28.1186 29.3704L30.3983 27.4539L20.42 15.6953Z" fill="white"/>
<path d="M14.6798 20.5013L18.4768 24.973L20.7565 23.064L15.0386 16.3193L0.919434 28.1522L2.84035 30.4178L14.6798 20.5013Z" fill="white"/>
<path d="M9.97832 14.7224L5.47873 18.4958L7.39965 20.7688L14.1864 15.0789L2.27969 1.04736L0 2.9638L9.97832 14.7224Z" fill="white"/>
<path d="M15.7188 9.91643L11.9218 5.43733L9.64209 7.35376L15.36 14.0984L29.4791 2.26555L27.5582 0L15.7188 9.91643Z" fill="white"/>
</svg>
